<?xml version="1.0" standalone="yes"?>
<svg xmlns="http://www.w3.org/2000/svg" width="64" height="64">
<path style="fill:#ffffff; stroke:none;" d="M0 0L0 64L64 64L64 0L0 0z"/>
<path style="fill:#1c1619; stroke:none;" d="M29.6667 4.33333C29.2222 4.7778 30.2778 4.72221 30.3333 4.66667C30.7778 4.22224 29.7222 4.27776 29.6667 4.33333z"/>
<path style="fill:#3f3137; stroke:none;" d="M31 4C33.0521 4.87425 34.7472 4.95279 37 5C34.9479 4.12575 33.2528 4.04721 31 4z"/>
<path style="fill:#151113; stroke:none;" d="M25 5L26 6L25 5z"/>
<path style="fill:#5d4751; stroke:none;" d="M26 5L27 6L26 5z"/>
<path style="fill:#aa8495; stroke:none;" d="M27 5C27.5451 6.63516 27.3648 6.45494 29 7L29 5L27 5z"/>
<path style="fill:#efbad3; stroke:none;" d="M29 5C31.8897 6.21294 34.8741 5.99828 38 6C35.1103 4.78706 32.1259 5.00172 29 5z"/>
<path style="fill:#bb91a4; stroke:none;" d="M38.3333 5.66667C38.2778 5.72223 38.2222 6.77777 38.6667 6.33333C38.7222 6.27778 38.7778 5.22222 38.3333 5.66667z"/>
<path style="fill:#846675; stroke:none;" d="M39 5L40 6L39 5z"/>
<path style="fill:#46363e; stroke:none;" d="M40 5L41 6L40 5z"/>
<path style="fill:#060506; stroke:none;" d="M41 5L42 6L41 5z"/>
<path style="fill:#070606; stroke:none;" d="M22 6L23 7L22 6z"/>
<path style="fill:#59454e; stroke:none;" d="M23 6L24 7L23 6z"/>
<path style="fill:#cb9eb4; stroke:none;" d="M24.3333 6.66667C24.2778 6.72221 24.2222 7.77778 24.6667 7.33333C24.7222 7.27776 24.7778 6.22224 24.3333 6.66667z"/>
<path style="fill:#efbad3; stroke:none;" d="M25 6C26.2484 6.6848 26.5484 6.74879 28 7C26.7516 6.3152 26.4516 6.25121 25 6z"/>
<path style="fill:#604b54; stroke:none;" d="M29.6667 6.33333C29.2222 6.7778 30.2778 6.72221 30.3333 6.66667C30.7778 6.22224 29.7222 6.27776 29.6667 6.33333z"/>
<path style="fill:#3f3137; stroke:none;" d="M31 6C32.769 6.77893 34.0359 6.91241 36 7C34.231 6.22106 32.9641 6.08759 31 6z"/>
<path style="fill:#8c6d7b; stroke:none;" d="M36.6667 6.33333C36.2222 6.77778 37.2778 6.72223 37.3333 6.66667C37.7778 6.22221 36.7222 6.27779 36.6667 6.33333z"/>
<path style="fill:#efbad3; stroke:none;" d="M39 6C40.6932 7.06235 42.0404 7.51957 44 8C42.2495 6.74512 41.1427 6.38632 39 6z"/>
<path style="fill:#9c7988; stroke:none;" d="M42 6L43 7L42 6z"/>
<path style="fill:#3b2e34; stroke:none;" d="M43 6L44 7L43 6z"/>
<path style="fill:#0b080a; stroke:none;" d="M20 7L21 8L20 7z"/>
<path style="fill:#725a65; stroke:none;" d="M21 7L22 8L21 7z"/>
<path style="fill:#efbad3; stroke:none;" d="M19 9C20.8974 9.08236 22.1593 8.64092 24 8C21.8597 7.58968 21.0375 8.03153 19 9z"/>
<path style="fill:#775d69; stroke:none;" d="M25 7L26 8L25 7z"/>
<path style="fill:#2d2328; stroke:none;" d="M26 7L27 8L26 7z"/>
<path style="fill:#ffffff; stroke:none;" d="M25 8L27 11L23 11C19.9231 14.5561 16.6509 17.9415 12 19C11.1195 21.0214 10.5036 22.8541 10 25L43 25C42.3585 23.189 42.0507 21.9078 42 20C44.5236 21.4351 44.8995 22.0955 45 25L57 25C53.9902 14.7717 45.6011 7.9314 35 7C35.2021 8.84991 35.2021 10.1501 35 12L33 12C32.7979 10.1501 32.7979 8.84992 33 7C30.2155 7.05835 27.7092 7.35213 25 8z"/>
<path style="fill:#080607; stroke:none;" d="M33.6667 7.33333C33.2222 7.77778 34.2778 7.72223 34.3333 7.66667C34.7778 7.22221 33.7222 7.27779 33.6667 7.33333z"/>
<path style="fill:#060405; stroke:none;" d="M39 7L40 8L39 7z"/>
<path style="fill:#44353c; stroke:none;" d="M40 7L41 8L40 7z"/>
<path style="fill:#8f6f7e; stroke:none;" d="M41 7L42 8L41 7z"/>
<path style="fill:#cda0b5; stroke:none;" d="M44 7C45.2292 8.8698 45.8683 9.22351 48 10C46.6074 8.56643 45.7672 7.95513 44 7z"/>
<path style="fill:#4b3a42; stroke:none;" d="M45 7L46 8L45 7z"/>
<path style="fill:#000000; stroke:none;" d="M46 7L47 8L46 7M18 8L19 9L18 8z"/>
<path style="fill:#58444e; stroke:none;" d="M19 8L20 9L19 8z"/>
<path style="fill:#aa8495; stroke:none;" d="M22 8L23 9L22 8z"/>
<path style="fill:#3c2e35; stroke:none;" d="M23 8L24 9L23 8z"/>
<path style="fill:#000000; stroke:none;" d="M24 8L25 9L24 8z"/>
<path style="fill:#161114; stroke:none;" d="M32 8L33 9L32 8z"/>
<path style="fill:#ebb7d0; stroke:none;" d="M33 8L33 11L35 11L35 8L33 8z"/>
<path style="fill:#59454e; stroke:none;" d="M35 8L36 9L35 8z"/>
<path style="fill:#090708; stroke:none;" d="M42 8L43 9L42 8z"/>
<path style="fill:#5e4853; stroke:none;" d="M43 8L44 9L43 8z"/>
<path style="fill:#2c2227; stroke:none;" d="M47 8L48 9L47 8z"/>
<path style="fill:#171215; stroke:none;" d="M17 9L18 10L17 9z"/>
<path style="fill:#b0899c; stroke:none;" d="M18 9L19 10L18 9z"/>
<path style="fill:#ba92a4; stroke:none;" d="M20 9L21 10L20 9z"/>
<path style="fill:#110d0f; stroke:none;" d="M20 10C22.0465 10.7511 22.5957 10.6556 24 9L20 10z"/>
<path style="fill:#ffffff; stroke:none;" d="M22 9L23 10L22 9z"/>
<path style="fill:#9c7988; stroke:none;" d="M24 9C24.5451 10.6352 24.3648 10.4549 26 11L26 9L24 9z"/>
<path style="fill:#0c090b; stroke:none;" d="M26.3333 9.66667C26.2778 9.72221 26.2222 10.7778 26.6667 10.3333C26.7222 10.2778 26.7778 9.22224 26.3333 9.66667z"/>
<path style="fill:#534149; stroke:none;" d="M32 9L33 10L32 9z"/>
<path style="fill:#b28b9d; stroke:none;" d="M35 9L36 10L35 9z"/>
<path style="fill:#030202; stroke:none;" d="M44 9L45 10L44 9z"/>
<path style="fill:#5d4751; stroke:none;" d="M45 9L46 10L45 9z"/>
<path style="fill:#7d616e; stroke:none;" d="M48 9L49 10L48 9z"/>
<path style="fill:#030202; stroke:none;" d="M49 9L50 10L49 9z"/>
<path style="fill:#3f3137; stroke:none;" d="M16 10L17 11L16 10z"/>
<path style="fill:#e6b3cb; stroke:none;" d="M17.6667 10.3333C17.2222 10.7778 18.2778 10.7222 18.3333 10.6667C18.7778 10.2222 17.7222 10.2778 17.6667 10.3333z"/>
<path style="fill:#604b55; stroke:none;" d="M19 10L20 11L19 10z"/>
<path style="fill:#e8b4cc; stroke:none;" d="M24 10L25 11L24 10z"/>
<path style="fill:#151113; stroke:none;" d="M32 10L33 11L32 10z"/>
<path style="fill:#57444e; stroke:none;" d="M35 10L36 11L35 10z"/>
<path style="fill:#100c0e; stroke:none;" d="M46 10L47 11L46 10z"/>
<path style="fill:#977485; stroke:none;" d="M47 10L48 11L47 10z"/>
<path style="fill:#dbabc2; stroke:none;" d="M48 10C49.7952 12.5075 51.4925 14.2048 54 16C52.5179 12.896 51.1041 11.4821 48 10z"/>
<path style="fill:#171215; stroke:none;" d="M50 10L51 11L50 10z"/>
<path style="fill:#5b4650; stroke:none;" d="M15 11L16 12L15 11z"/>
<path style="fill:#c79aae; stroke:none;" d="M16 11L16 13C17.6352 12.4549 17.4549 12.6352 18 11L16 11z"/>
<path style="fill:#151113; stroke:none;" d="M17 13C18.58 12.3164 18.7772 12.1952 20 11C18.42 11.6836 18.2228 11.8048 17 13z"/>
<path style="fill:#67505b; stroke:none;" d="M20 11L21 12L20 11z"/>
<path style="fill:#e5b2ca; stroke:none;" d="M21 11L22 12L21 11z"/>
<path style="fill:#816473; stroke:none;" d="M22 11L23 12L22 11z"/>
<path style="fill:#020101; stroke:none;" d="M24 11L25 12L24 11z"/>
<path style="fill:#070606; stroke:none;" d="M33.6667 11.3333C33.2222 11.7778 34.2778 11.7222 34.3333 11.6667C34.7778 11.2222 33.7222 11.2778 33.6667 11.3333z"/>
<path style="fill:#54414a; stroke:none;" d="M48 11L49 12L48 11z"/>
<path style="fill:#261e22; stroke:none;" d="M51 11L52 12L51 11z"/>
<path style="fill:#67505b; stroke:none;" d="M14 12L15 13L14 12z"/>
<path style="fill:#efbad3; stroke:none;" d="M15 12L16 13L15 12z"/>
<path style="fill:#cfa0b9; stroke:none;" d="M15 18C17.5075 16.2048 19.2048 14.5075 21 12C17.896 13.4821 16.4821 14.896 15 18z"/>
<path style="fill:#a78394; stroke:none;" d="M21 12L22 13L21 12z"/>
<path style="fill:#151012; stroke:none;" d="M22 12L23 13L22 12z"/>
<path style="fill:#21191d; stroke:none;" d="M26 12C27.2484 12.6848 27.5484 12.7488 29 13C27.7517 12.3152 27.4516 12.2512 26 12z"/>
<path style="fill:#30252a; stroke:none;" d="M49 12L50 13L49 12z"/>
<path style="fill:#2b2126; stroke:none;" d="M52 12L53 13L52 12z"/>
<path style="fill:#5e4953; stroke:none;" d="M13 13L14 14L13 13z"/>
<path style="fill:#eeb9d2; stroke:none;" d="M14 13L15 14L14 13z"/>
<path style="fill:#a48090; stroke:none;" d="M15 13L16 14L15 13z"/>
<path style="fill:#2e2328; stroke:none;" d="M15 16C16.4566 14.8966 16.8966 14.4566 18 13C15.8764 13.8993 15.8993 13.8764 15 16z"/>
<path style="fill:#55424b; stroke:none;" d="M20 13L21 14L20 13z"/>
<path style="fill:#5d4751; stroke:none;" d="M25 13L26 14L25 13z"/>
<path style="fill:#deadc4; stroke:none;" d="M26 13C27.1394 14.0154 27.6116 14.3087 29 15C28.0198 13.2167 28.0924 13.4057 26 13z"/>
<path style="fill:#1c1619; stroke:none;" d="M29 13L30 14L29 13z"/>
<path style="fill:#21191d; stroke:none;" d="M50 13L51 14L50 13z"/>
<path style="fill:#241c20; stroke:none;" d="M53 13L54 14L53 13z"/>
<path style="fill:#3e3036; stroke:none;" d="M12 14L13 15L12 14z"/>
<path style="fill:#c79aae; stroke:none;" d="M13 14L13 16C14.6352 15.4549 14.4549 15.6352 15 14L13 14z"/>
<path style="fill:#2a2125; stroke:none;" d="M19 14L20 15L19 14z"/>
<path style="fill:#32262c; stroke:none;" d="M24 14L24 17C24.6961 15.4463 24.6961 15.5537 24 14z"/>
<path style="fill:#efbad3; stroke:none;" d="M25.3333 14.6667C25.2778 14.7222 25.2222 15.7778 25.6667 15.3333C25.7222 15.2778 25.7778 14.2222 25.3333 14.6667z"/>
<path style="fill:#a78394; stroke:none;" d="M26 14L27 15L26 14z"/>
<path style="fill:#5a474f; stroke:none;" d="M27 14L28 15L27 14z"/>
<path style="fill:#c297ab; stroke:none;" d="M29 14C28.0143 15.4785 28 15.2032 28 17C29.2892 15.5574 29.4009 15.7663 29 14z"/>
<path style="fill:#060405; stroke:none;" d="M42 14L43 15L42 14z"/>
<path style="fill:#2c2227; stroke:none;" d="M43.6667 14.3333C43.2222 14.7778 44.2778 14.7222 44.3333 14.6667C44.7778 14.2222 43.7222 14.2778 43.6667 14.3333z"/>
<path style="fill:#221a1e; stroke:none;" d="M51 14L52 15L51 14z"/>
<path style="fill:#0f0b0d; stroke:none;" d="M54 14L55 15L54 14z"/>
<path style="fill:#1a1417; stroke:none;" d="M11 15L12 16L11 15z"/>
<path style="fill:#e4b0cb; stroke:none;" d="M12.3333 15.6667C12.2778 15.7222 12.2222 16.7778 12.6667 16.3333C12.7222 16.2778 12.7778 15.2222 12.3333 15.6667z"/>
<path style="fill:#141012; stroke:none;" d="M14 15C13.0432 17.6204 12.7408 18.3396 15 20C14.8149 18.17 14.6339 16.6969 14 15z"/>
<path style="fill:#151113; stroke:none;" d="M18 15L19 16L18 15z"/>
<path style="fill:#46363e; stroke:none;" d="M26 15L27 16L26 15z"/>
<path style="fill:#ffffff; stroke:none;" d="M27 15L28 16L27 15z"/>
<path style="fill:#ab8497; stroke:none;" d="M42 15L43 16L42 15z"/>
<path style="fill:#e1aecd; stroke:none;" d="M43 15L43 18C45.0059 16.8734 45.0059 16.1266 43 15z"/>
<path style="fill:#44353c; stroke:none;" d="M45 15L46 16L45 15z"/>
<path style="fill:#382b31; stroke:none;" d="M52 15L53 16L52 15z"/>
<path style="fill:#ab8497; stroke:none;" d="M54 15L55 16L54 15z"/>
<path style="fill:#000000; stroke:none;" d="M55 15L56 16L55 15M10 16L11 17L10 16z"/>
<path style="fill:#ae869b; stroke:none;" d="M11 16L12 17L11 16z"/>
<path style="fill:#191316; stroke:none;" d="M17 16L18 17L17 16z"/>
<path style="fill:#cd9eba; stroke:none;" d="M25 16C26.2228 17.1952 26.42 17.3164 28 18C26.7772 16.8048 26.58 16.6836 25 16z"/>
<path style="fill:#9b778a; stroke:none;" d="M27 16L28 17L27 16z"/>
<path style="fill:#7f6271; stroke:none;" d="M29 16L30 17L29 16z"/>
<path style="fill:#000000; stroke:none;" d="M41 16L42 17L41 16z"/>
<path style="fill:#e8b4cf; stroke:none;" d="M42 16L43 17L42 16z"/>
<path style="fill:#af879d; stroke:none;" d="M43 16L44 17L43 16z"/>
<path style="fill:#846575; stroke:none;" d="M45 16L46 17L45 16z"/>
<path style="fill:#67505b; stroke:none;" d="M53 16L54 17L53 16z"/>
<path style="fill:#eeb8d4; stroke:none;" d="M54 16L55 17L54 16z"/>
<path style="fill:#614c56; stroke:none;" d="M55 16L56 17L55 16z"/>
<path style="fill:#584450; stroke:none;" d="M10 17L11 18L10 17z"/>
<path style="fill:#e2acd7; stroke:none;" d="M11 17C10.0143 18.4785 10 18.2032 10 20C11.2892 18.5574 11.4009 18.7663 11 17z"/>
<path style="fill:#5f4a58; stroke:none;" d="M12 17L13 18L12 17z"/>
<path style="fill:#aa849b; stroke:none;" d="M14 17L15 18L14 17z"/>
<path style="fill:#2a2026; stroke:none;" d="M16 17L17 18L16 17z"/>
<path style="fill:#2c2228; stroke:none;" d="M25 17L26 18L25 17z"/>
<path style="fill:#856679; stroke:none;" d="M28 17L29 18L28 17z"/>
<path style="fill:#070507; stroke:none;" d="M29 17L30 18L29 17z"/>
<path style="fill:#8e6e80; stroke:none;" d="M42 17L43 18L42 17z"/>
<path style="fill:#32272e; stroke:none;" d="M45 17L46 18L45 17z"/>
<path style="fill:#000000; stroke:none;" d="M53 17L54 18L53 17z"/>
<path style="fill:#aa849b; stroke:none;" d="M54 17L55 18L54 17z"/>
<path style="fill:#e0abd0; stroke:none;" d="M55.3333 17.6667C55.2778 17.7222 55.2222 18.7778 55.6667 18.3333C55.7222 18.2778 55.7778 17.2222 55.3333 17.6667z"/>
<path style="fill:#191316; stroke:none;" d="M56 17L57 18L56 17z"/>
<path style="fill:#0a0709; stroke:none;" d="M9 18L10 19L9 18z"/>
<path style="fill:#e7b1d7; stroke:none;" d="M14 18L15 19L14 18z"/>
<path style="fill:#53404d; stroke:none;" d="M15 18L16 19L15 18z"/>
<path style="fill:#130e12; stroke:none;" d="M43.6667 18.3333C43.2222 18.7778 44.2778 18.7222 44.3333 18.6667C44.7778 18.2222 43.7222 18.2778 43.6667 18.3333z"/>
<path style="fill:#1f171d; stroke:none;" d="M54 18L55 19L54 18z"/>
<path style="fill:#916f87; stroke:none;" d="M56 18L57 19L56 18z"/>
<path style="fill:#6d5469; stroke:none;" d="M9 19L10 20L9 19z"/>
<path style="fill:#2f242d; stroke:none;" d="M11 19L12 20L11 19z"/>
<path style="fill:#181217; stroke:none;" d="M17.6667 19.3333C17.2222 19.7778 18.2778 19.7222 18.3333 19.6667C18.7778 19.2222 17.7222 19.2778 17.6667 19.3333z"/>
<path style="fill:#795c74; stroke:none;" d="M55 19L56 20L55 19z"/>
<path style="fill:#d5a2d0; stroke:none;" d="M56.3333 19.6667C56.2778 19.7222 56.2222 20.7778 56.6667 20.3333C56.7222 20.2778 56.7778 19.2222 56.3333 19.6667z"/>
<path style="fill:#261d24; stroke:none;" d="M57 19L58 20L57 19z"/>
<path style="fill:#050405; stroke:none;" d="M8 20L9 21L8 20z"/>
<path style="fill:#dda6db; stroke:none;" d="M9.33333 20.6667C9.27777 20.7222 9.22223 21.7778 9.66667 21.3333C9.72221 21.2778 9.77778 20.2222 9.33333 20.6667z"/>
<path style="fill:#a0799c; stroke:none;" d="M10 20L11 21L10 20z"/>
<path style="fill:#201820; stroke:none;" d="M16.3333 20.6667C16.2778 20.7222 16.2222 21.7778 16.6667 21.3333C16.7222 21.2778 16.7778 20.2222 16.3333 20.6667z"/>
<path style="fill:#dda6db; stroke:none;" d="M17 20L17 22L19 22L19 20L17 20z"/>
<path style="fill:#5a4458; stroke:none;" d="M19 20L20 21L19 20z"/>
<path style="fill:#0a0709; stroke:none;" d="M42 20L43 21L42 20z"/>
<path style="fill:#352834; stroke:none;" d="M43.6667 20.3333C43.2222 20.7778 44.2778 20.7222 44.3333 20.6667C44.7778 20.2222 43.7222 20.2778 43.6667 20.3333z"/>
<path style="fill:#100c0f; stroke:none;" d="M55 20L56 21L55 20z"/>
<path style="fill:#8d6b88; stroke:none;" d="M57 20L58 21L57 20z"/>
<path style="fill:#523d51; stroke:none;" d="M8 21L9 22L8 21z"/>
<path style="fill:#372937; stroke:none;" d="M10 21L11 22L10 21z"/>
<path style="fill:#8e6a8c; stroke:none;" d="M19 21L20 22L19 21z"/>
<path style="fill:#a67ca4; stroke:none;" d="M42 21L43 22L42 21z"/>
<path style="fill:#c894cf; stroke:none;" d="M43 21L43 24C45.0059 22.8734 45.0059 22.1266 43 21z"/>
<path style="fill:#463445; stroke:none;" d="M45 21L46 22L45 21z"/>
<path style="fill:#7f5f7c; stroke:none;" d="M56 21L57 22L56 21z"/>
<path style="fill:#d9a2dc; stroke:none;" d="M57.3333 21.6667C57.2778 21.7222 57.2222 22.7778 57.6667 22.3333C57.7222 22.2778 57.7778 21.2222 57.3333 21.6667z"/>
<path style="fill:#110d11; stroke:none;" d="M58 21L59 22L58 21z"/>
<path style="fill:#bd8dc0; stroke:none;" d="M8.66667 22.3333C8.22223 22.7778 9.27777 22.7222 9.33333 22.6667C9.77778 22.2222 8.72223 22.2778 8.66667 22.3333z"/>
<path style="fill:#000000; stroke:none;" d="M10 22L11 23L10 22z"/>
<path style="fill:#916d93; stroke:none;" d="M17.6667 22.3333C17.2222 22.7778 18.2778 22.7222 18.3333 22.6667C18.7778 22.2222 17.7222 22.2778 17.6667 22.3333z"/>
<path style="fill:#1f1720; stroke:none;" d="M19 22L20 23L19 22z"/>
<path style="fill:#000000; stroke:none;" d="M41 22L42 23L41 22z"/>
<path style="fill:#d39ed6; stroke:none;" d="M42 22L43 23L42 22z"/>
<path style="fill:#a178a3; stroke:none;" d="M43 22L44 23L43 22z"/>
<path style="fill:#785a7a; stroke:none;" d="M45 22L46 23L45 22z"/>
<path style="fill:#251c26; stroke:none;" d="M56 22L57 23L56 22z"/>
<path style="fill:#5a435b; stroke:none;" d="M58 22L59 23L58 22z"/>
<path style="fill:#120d13; stroke:none;" d="M7 23L8 24L7 23z"/>
<path style="fill:#cd95e2; stroke:none;" d="M8 23L7 27L60 27L59 24C54.5737 26.4616 49.9395 26 45 26L21 26C16.0619 26 11.7673 26.5963 8 23z"/>
<path style="fill:#6a4f6e; stroke:none;" d="M9 23L10 24L9 23z"/>
<path style="fill:#75577a; stroke:none;" d="M42 23L43 24L42 23z"/>
<path style="fill:#271d29; stroke:none;" d="M45 23L46 24L45 23z"/>
<path style="fill:#a37aaa; stroke:none;" d="M57.6667 23.3333C57.2222 23.7778 58.2778 23.7222 58.3333 23.6667C58.7778 23.2222 57.7222 23.2778 57.6667 23.3333z"/>
<path style="fill:#49364e; stroke:none;" d="M7 24L8 25L7 24z"/>
<path style="fill:#2c202e; stroke:none;" d="M9 24L10 25L9 24z"/>
<path style="fill:#090609; stroke:none;" d="M43.6667 24.3333C43.2222 24.7778 44.2778 24.7222 44.3333 24.6667C44.7778 24.2222 43.7222 24.2778 43.6667 24.3333z"/>
<path style="fill:#82608c; stroke:none;" d="M57.3333 24.6667C57.2778 24.7222 57.2222 25.7778 57.6667 25.3333C57.7222 25.2778 57.7778 24.2222 57.3333 24.6667z"/>
<path style="fill:#0b080b; stroke:none;" d="M59 24L60 25L59 24z"/>
<path style="fill:#020103; stroke:none;" d="M6 25L7 26L6 25z"/>
<path style="fill:#8a6493; stroke:none;" d="M7 25L8 26L7 25z"/>
<path style="fill:#614668; stroke:none;" d="M9 25C13.7199 26.9806 19.9198 26 25 26L57 26C52.2801 24.0194 46.0802 25 41 25L9 25z"/>
<path style="fill:#4b3651; stroke:none;" d="M59 25L60 26L59 25z"/>
<path style="fill:#251a29; stroke:none;" d="M5 26L6 27L5 26z"/>
<path style="fill:#b985d0; stroke:none;" d="M6 26C5.01432 27.4785 5 27.2032 5 29C6.28922 27.5574 6.40094 27.7663 6 26z"/>
<path style="fill:#886295; stroke:none;" d="M60 26L61 27L60 26z"/>
<path style="fill:#070508; stroke:none;" d="M61 26L62 27L61 26z"/>
<path style="fill:#17101a; stroke:none;" d="M4 27L5 28L4 27z"/>
<path style="fill:#4a3554; stroke:none;" d="M7 27L8 28L7 27z"/>
<path style="fill:#110c13; stroke:none;" d="M8 27L9 28L8 27z"/>
<path style="fill:#ffffff; stroke:none;" d="M6 31C15.9424 27.6925 22.9015 29.2225 33 29.6867C35.4256 29.7982 37.6129 28.6968 40 28.5841C42.415 28.4701 44.6139 29.581 47 29.6867C50.0169 29.8205 53.0479 28.4998 56 28C51.1037 33.3559 47.3449 31.5968 41 31.3133C35.8138 31.0815 32.3027 32.3877 27 31C32.3054 36.4176 45.7794 34.3277 52.9992 33.9599C55.085 33.8536 61.4513 33.1125 59.5926 29.4591C57.7619 25.8606 50.2284 27.0002 47 27L18 27C13.1836 27.0019 8.66053 26.4459 6 31z"/>
<path style="fill:#1f1623; stroke:none;" d="M57.6667 27.3333C57.2222 27.7778 58.2778 27.7222 58.3333 27.6667C58.7778 27.2222 57.7222 27.2778 57.6667 27.3333z"/>
<path style="fill:#6f507d; stroke:none;" d="M59 27L60 28L59 27z"/>
<path style="fill:#c890e1; stroke:none;" d="M60 27L61 28L60 27z"/>
<path style="fill:#9066a2; stroke:none;" d="M61 27L62 28L61 27z"/>
<path style="fill:#7b588d; stroke:none;" d="M4 28L5 29L4 28z"/>
<path style="fill:#221827; stroke:none;" d="M6 28L7 29L6 28z"/>
<path style="fill:#2e2035; stroke:none;" d="M12.6667 28.3333C12.2222 28.7778 13.2778 28.7222 13.3333 28.6667C13.7778 28.2222 12.7222 28.2778 12.6667 28.3333z"/>
<path style="fill:#6a4c7a; stroke:none;" d="M14 28C15.769 28.7789 17.0359 28.9124 19 29C17.231 28.2211 15.9641 28.0876 14 28z"/>
<path style="fill:#150f18; stroke:none;" d="M19.6667 28.3333C19.2222 28.7778 20.2778 28.7222 20.3333 28.6667C20.7778 28.2222 19.7222 28.2778 19.6667 28.3333z"/>
<path style="fill:#2a1e30; stroke:none;" d="M23.6667 28.3333C23.2222 28.7778 24.2778 28.7222 24.3333 28.6667C24.7778 28.2222 23.7222 28.2778 23.6667 28.3333z"/>
<path style="fill:#51395c; stroke:none;" d="M25 28C26.2484 28.6848 26.5484 28.7488 28 29C26.7516 28.3152 26.4516 28.2512 25 28z"/>
<path style="fill:#0c080e; stroke:none;" d="M28 28L29 29L28 28z"/>
<path style="fill:#45314f; stroke:none;" d="M38 28C39.506 28.683 40.3148 28.8259 42 29C40.494 28.317 39.6852 28.1741 38 28z"/>
<path style="fill:#17101b; stroke:none;" d="M42 28L43 29L42 28z"/>
<path style="fill:#0f0b12; stroke:none;" d="M52 28L53 29L52 28z"/>
<path style="fill:#4e3759; stroke:none;" d="M53.6667 28.3333C53.2222 28.7778 54.2778 28.7222 54.3333 28.6667C54.7778 28.2222 53.7222 28.2778 53.6667 28.3333z"/>
<path style="fill:#0d090f; stroke:none;" d="M55 28L56 29L55 28z"/>
<path style="fill:#5f436d; stroke:none;" d="M60 28L61 29L60 28z"/>
<path style="fill:#bd86dd; stroke:none;" d="M61.3333 28.6667C61.2778 28.7222 61.2222 29.7778 61.6667 29.3333C61.7222 29.2778 61.7778 28.2222 61.3333 28.6667z"/>
<path style="fill:#392841; stroke:none;" d="M62 28L63 29L62 28z"/>
<path style="fill:#c187e7; stroke:none;" d="M4 29L4 32C4.6961 30.4463 4.6961 30.5537 4 29z"/>
<path style="fill:#5f4271; stroke:none;" d="M5 29L5 32C5.6961 30.4463 5.6961 30.5537 5 29z"/>
<path style="fill:#000000; stroke:none;" d="M9 29L10 30L9 29z"/>
<path style="fill:#33243c; stroke:none;" d="M10 29L11 30L10 29z"/>
<path style="fill:#855e9a; stroke:none;" d="M11 29L12 30L11 29z"/>
<path style="fill:#c48be5; stroke:none;" d="M12 29C14.8897 30.2129 17.8741 29.9983 21 30C18.1103 28.7871 15.1259 29.0017 12 29z"/>
<path style="fill:#9a6cb9; stroke:none;" d="M21.3333 29.6667C21.2778 29.7222 21.2222 30.7778 21.6667 30.3333C21.7222 30.2778 21.7778 29.2222 21.3333 29.6667z"/>
<path style="fill:#624572; stroke:none;" d="M22 29L23 30L22 29z"/>
<path style="fill:#c48be5; stroke:none;" d="M22 30C22.5977 31.1954 22.4661 30.9774 24 32C25.731 30.994 27.053 30.4535 29 30C26.4131 28.9346 24.679 29.2185 22 30z"/>
<path style="fill:#664776; stroke:none;" d="M29 29L30 30L29 29z"/>
<path style="fill:#09060b; stroke:none;" d="M30 29L31 30L30 29z"/>
<path style="fill:#1c1421; stroke:none;" d="M36 29L37 30L36 29z"/>
<path style="fill:#885f9f; stroke:none;" d="M37 29L38 30L37 29z"/>
<path style="fill:#c48be5; stroke:none;" d="M38 29C39.769 29.7789 41.0359 29.9124 43 30C41.231 29.2211 39.9641 29.0876 38 29z"/>
<path style="fill:#7f5b96; stroke:none;" d="M43 29L44 30L43 29z"/>
<path style="fill:#17101b; stroke:none;" d="M44 29L45 30L44 29z"/>
<path style="fill:#0d090f; stroke:none;" d="M50 29L51 30L50 29z"/>
<path style="fill:#6d4e7f; stroke:none;" d="M51 29L52 30L51 29z"/>
<path style="fill:#c48be5; stroke:none;" d="M52 29C53.2483 29.6848 53.5484 29.7488 55 30C53.7516 29.3152 53.4516 29.2512 52 29z"/>
<path style="fill:#3c2b47; stroke:none;" d="M55 29L56 30L55 29z"/>
<path style="fill:#040204; stroke:none;" d="M60 29L61 30L60 29z"/>
<path style="fill:#8b61a5; stroke:none;" d="M62 29C62.0313 30.8318 61.9205 30.5587 63 32C62.7488 30.5484 62.6848 30.2484 62 29z"/>
<path style="fill:#050306; stroke:none;" d="M3 30L4 31L3 30z"/>
<path style="fill:#291c31; stroke:none;" d="M8 30L9 31L8 30z"/>
<path style="fill:#b07bd2; stroke:none;" d="M8 31C9.6593 31.4065 10.2418 31.3086 12 31C10.1908 30.4257 9.93123 30.5347 8 31z"/>
<path style="fill:#503763; stroke:none;" d="M12 30L12 32C13.6352 31.4549 13.4549 31.6352 14 30L12 30z"/>
<path style="fill:#120c16; stroke:none;" d="M14 30C16.0521 30.8742 17.7472 30.9528 20 31C17.9479 30.1257 16.2528 30.0472 14 30z"/>
<path style="fill:#66467e; stroke:none;" d="M20.3333 30.6667C20.2778 30.7222 20.2222 31.7778 20.6667 31.3333C20.7222 31.2778 20.7778 30.2222 20.3333 30.6667z"/>
<path style="fill:#100b13; stroke:none;" d="M25 30L26 32C27.6352 31.4549 27.455 31.6352 28 30L25 30z"/>
<path style="fill:#795491; stroke:none;" d="M28 30L29 31L28 30z"/>
<path style="fill:#be84e8; stroke:none;" d="M29 30C31.3079 31.7595 33.0923 31.9172 36 32C33.7485 30.9115 31.4653 30.4813 29 30z"/>
<path style="fill:#513a63; stroke:none;" d="M31 30L32 31L31 30z"/>
<path style="fill:#100b13; stroke:none;" d="M32 30C33.2483 30.6848 33.5484 30.7488 35 31C33.7516 30.3152 33.4516 30.2512 32 30z"/>
<path style="fill:#6f4c84; stroke:none;" d="M35 30L36 31L35 30z"/>
<path style="fill:#b57fd9; stroke:none;" d="M36.6667 30.3333C36.2222 30.7778 37.2778 30.7222 37.3333 30.6667C37.7778 30.2222 36.7222 30.2778 36.6667 30.3333z"/>
<path style="fill:#5a3e6b; stroke:none;" d="M38 30L39 31L38 30z"/>
<path style="fill:#0d090f; stroke:none;" d="M39 30C40.2483 30.6848 40.5484 30.7488 42 31C40.7516 30.3152 40.4516 30.2512 39 30z"/>
<path style="fill:#624374; stroke:none;" d="M42 30L43 31L42 30z"/>
<path style="fill:#bb83e0; stroke:none;" d="M43.6667 30.3333C43.2222 30.7778 44.2778 30.7222 44.3333 30.6667C44.7778 30.2222 43.7222 30.2778 43.6667 30.3333z"/>
<path style="fill:#68497c; stroke:none;" d="M45 30L46 31L45 30z"/>
<path style="fill:#0f0a12; stroke:none;" d="M46 30C47.2483 30.6848 47.5484 30.7488 49 31C47.7516 30.3152 47.4516 30.2512 46 30z"/>
<path style="fill:#583d69; stroke:none;" d="M49 30L50 31L49 30z"/>
<path style="fill:#be85e3; stroke:none;" d="M50.6667 30.3333C50.2222 30.7778 51.2778 30.7222 51.3333 30.6667C51.7778 30.2222 50.7222 30.2778 50.6667 30.3333z"/>
<path style="fill:#704e87; stroke:none;" d="M52 30L53 31L52 30z"/>
<path style="fill:#0c080e; stroke:none;" d="M53.6667 30.3333C53.2222 30.7778 54.2778 30.7222 54.3333 30.6667C54.7778 30.2222 53.7222 30.2778 53.6667 30.3333z"/>
<path style="fill:#010102; stroke:none;" d="M6 31L7 32L6 31z"/>
<path style="fill:#64457c; stroke:none;" d="M7 31L8 32L7 31z"/>
<path style="fill:#67467f; stroke:none;" d="M10.3333 31.6667C10.2778 31.7222 10.2222 32.7778 10.6667 32.3333C10.7222 32.2778 10.7778 31.2222 10.3333 31.6667z"/>
<path style="fill:#17101d; stroke:none;" d="M11 31L12 32L11 31z"/>
<path style="fill:#9969bf; stroke:none;" d="M13.3333 31.6667C13.2778 31.7222 13.2222 32.7778 13.6667 32.3333C13.7222 32.2778 13.7778 31.2222 13.3333 31.6667z"/>
<path style="fill:#be84e8; stroke:none;" d="M14 31C16.1621 32.2537 17.4826 32.2245 20 32C17.9479 31.1258 16.2528 31.0472 14 31z"/>
<path style="fill:#24192c; stroke:none;" d="M21.6667 31.3333C21.2222 31.7778 22.2778 31.7222 22.3333 31.6667C22.7778 31.2222 21.7222 31.2778 21.6667 31.3333z"/>
<path style="fill:#885ea5; stroke:none;" d="M23 31L24 32L23 31z"/>
<path style="fill:#b57aec; stroke:none;" d="M25 31C26.1059 33.5128 27.5231 35.6774 29 38C29.6848 36.7516 29.7488 36.4516 30 35C33.9937 35.0026 38.0235 35.5496 42 35.4059C46.8243 35.2315 53.0102 33.3883 56 38C57.0154 36.8607 57.3087 36.3884 58 35L60 35L61 39C61.8108 36.7607 61.5288 35.353 61 33C50.7968 35.4292 34.2599 36.0939 25 31z"/>
<path style="fill:#25192d; stroke:none;" d="M29 31L30 32L29 31z"/>
<path style="fill:#6e4d87; stroke:none;" d="M36 31L37 32L36 31z"/>
<path style="fill:#0e0911; stroke:none;" d="M37 31L38 32L37 31z"/>
<path style="fill:#120c17; stroke:none;" d="M43 31L44 32L43 31z"/>
<path style="fill:#75518f; stroke:none;" d="M44 31L45 32L44 31z"/>
<path style="fill:#be84e8; stroke:none;" d="M45 31C46.769 31.7789 48.0359 31.9124 50 32C48.231 31.2211 46.9641 31.0876 45 31z"/>
<path style="fill:#885ea6; stroke:none;" d="M50 31L51 32L50 31z"/>
<path style="fill:#1f1526; stroke:none;" d="M51 31L52 32L51 31z"/>
<path style="fill:#030204; stroke:none;" d="M60 31L61 32L60 31z"/>
<path style="fill:#bb80e9; stroke:none;" d="M61.3333 31.6667C61.2778 31.7222 61.2222 32.7778 61.6667 32.3333C61.7222 32.2778 61.7778 31.2222 61.3333 31.6667z"/>
<path style="fill:#6e4b8a; stroke:none;" d="M4 32L5 33L4 32z"/>
<path style="fill:#b67ce8; stroke:none;" d="M5 32L5 35L7 34C6.45495 32.3648 6.63516 32.5451 5 32z"/>
<path style="fill:#8b5fac; stroke:none;" d="M6 32L7 33L6 32z"/>
<path style="fill:#bb80e9; stroke:none;" d="M7 32L8 33L7 32z"/>
<path style="fill:#714e8f; stroke:none;" d="M8 32L9 33L8 32z"/>
<path style="fill:#130d16; stroke:none;" d="M9 32L10 33L9 32z"/>
<path style="fill:#bb80e9; stroke:none;" d="M11.6667 32.3333C11.2222 32.7778 12.2778 32.7222 12.3333 32.6667C12.7778 32.2222 11.7222 32.2778 11.6667 32.3333z"/>
<path style="fill:#4f3663; stroke:none;" d="M14.6667 32.3333C14.2222 32.7778 15.2778 32.7222 15.3333 32.6667C15.7778 32.2222 14.7222 32.2778 14.6667 32.3333z"/>
<path style="fill:#5f4075; stroke:none;" d="M17 32C18.2484 32.6848 18.5484 32.7488 20 33C18.7516 32.3152 18.4516 32.2512 17 32z"/>
<path style="fill:#a36fd0; stroke:none;" d="M20 32C21.458 33.0811 22.248 33.4361 24 34C22.457 32.7333 21.9522 32.5108 20 32z"/>
<path style="fill:#3d294c; stroke:none;" d="M23 32C24.2228 33.1952 24.42 33.3164 26 34C24.7772 32.8048 24.58 32.6836 23 32z"/>
<path style="fill:#281b32; stroke:none;" d="M27 32L28 33L27 32z"/>
<path style="fill:#422e53; stroke:none;" d="M31 32C32.506 32.683 33.3148 32.8259 35 33C33.494 32.317 32.6852 32.1741 31 32z"/>
<path style="fill:#0e0a12; stroke:none;" d="M35 32L36 33L35 32z"/>
<path style="fill:#120c17; stroke:none;" d="M45 32L46 33L45 32z"/>
<path style="fill:#4b335d; stroke:none;" d="M46 32C47.2483 32.6848 47.5484 32.7488 49 33C47.7517 32.3152 47.4516 32.2512 46 32z"/>
<path style="fill:#1a1221; stroke:none;" d="M49 32L50 33L49 32z"/>
<path style="fill:#5a3e70; stroke:none;" d="M60 32L61 33L60 32z"/>
<path style="fill:#342341; stroke:none;" d="M62 32L63 33L62 32z"/>
<path style="fill:#120c18; stroke:none;" d="M4 33L5 34L4 33z"/>
<path style="fill:#3f2a51; stroke:none;" d="M6 36C7.45663 34.8966 7.89659 34.4566 9 33C6.87637 33.8993 6.89929 33.8764 6 36z"/>
<path style="fill:#9a69cb; stroke:none;" d="M9 33L9 35C10.6352 34.4549 10.4549 34.6352 11 33L9 33z"/>
<path style="fill:#724e93; stroke:none;" d="M11 33L12 34L11 33z"/>
<path style="fill:#1b1223; stroke:none;" d="M12 33L13 34L12 33z"/>
<path style="fill:#ffffff; stroke:none;" d="M17 53C20.8883 55.1026 29.1818 48.8636 26 45L26 43L28 43C27.0358 40.5767 26.0363 38.5573 24.152 36.6836C22.6715 35.2115 21.0171 34.0334 18.9606 33.5494C10.8973 31.6516 3.7958 39.9867 6.77392 47.74C8.37234 51.9013 13.0108 55.2645 17 53z"/>
<path style="fill:#634480; stroke:none;" d="M16 33L17 34L16 33z"/>
<path style="fill:#251930; stroke:none;" d="M17 33L18 34L17 33z"/>
<path style="fill:#070409; stroke:none;" d="M20 33L21 34L20 33z"/>
<path style="fill:#49315e; stroke:none;" d="M21 33L22 34L21 33z"/>
<path style="fill:#24182e; stroke:none;" d="M28 33L29 34L28 33z"/>
<path style="fill:#1d1325; stroke:none;" d="M57.6667 33.3333C57.2222 33.7778 58.2778 33.7222 58.3333 33.6667C58.7778 33.2222 57.7222 33.2778 57.6667 33.3333z"/>
<path style="fill:#674683; stroke:none;" d="M59 33L60 34L59 33z"/>
<path style="fill:#7e559f; stroke:none;" d="M61 33L62 34L61 33z"/>
<path style="fill:#644382; stroke:none;" d="M4 34L5 35L4 34z"/>
<path style="fill:#a66de6; stroke:none;" d="M8 34C7.0427 35.5167 6.61278 36.3385 6 38C7.63 36.4852 8.16307 36.1447 8 34z"/>
<path style="fill:#22172d; stroke:none;" d="M10 34L11 35L10 34z"/>
<path style="fill:#050307; stroke:none;" d="M22 34L23 35L22 34z"/>
<path style="fill:#69478a; stroke:none;" d="M23 34L24 35L23 34z"/>
<path style="fill:#a36cd8; stroke:none;" d="M24 34L24 37L26 36C25.4549 34.3648 25.6352 34.5451 24 34z"/>
<path style="fill:#7a529f; stroke:none;" d="M25 34L26 35L25 34z"/>
<path style="fill:#150d1b; stroke:none;" d="M26 34L27 35L26 34z"/>
<path style="fill:#18101f; stroke:none;" d="M61 34L62 35L61 34z"/>
<path style="fill:#322143; stroke:none;" d="M3 35L4 36L3 35z"/>
<path style="fill:#9562ca; stroke:none;" d="M4 35L2 39C3.85954 37.7345 4.36887 37.2226 4 35z"/>
<path style="fill:#613f81; stroke:none;" d="M5 35L6 36L5 35z"/>
<path style="fill:#5b3c7b; stroke:none;" d="M9 35L8 37L10 37C10 35.1468 10.2997 35.6498 9 35z"/>
<path style="fill:#21152d; stroke:none;" d="M23.3333 35.6667C23.2778 35.7222 23.2222 36.7778 23.6667 36.3333C23.7222 36.2778 23.7778 35.2222 23.3333 35.6667z"/>
<path style="fill:#6a468e; stroke:none;" d="M26 35L27 36L26 35z"/>
<path style="fill:#452d5f; stroke:none;" d="M27 35L27 37L29 37C28.4549 35.3648 28.6352 35.5451 27 35z"/>
<path style="fill:#5e3e7d; stroke:none;" d="M30 35C33.1633 36.3274 36.5856 35.9996 40 36C36.8367 34.6726 33.4144 35.0004 30 35M42 35C45.8193 37.2082 51.5874 36 56 36C51.7835 34.2307 46.5411 35 42 35z"/>
<path style="fill:#583b76; stroke:none;" d="M58.6667 35.3333C58.2222 35.7778 59.2778 35.7222 59.3333 35.6667C59.7778 35.2222 58.7222 35.2778 58.6667 35.3333z"/>
<path style="fill:#050306; stroke:none;" d="M62 35L63 36L62 35z"/>
<path style="fill:#020103; stroke:none;" d="M2 36L3 37L2 36z"/>
<path style="fill:#170f1f; stroke:none;" d="M5 36L6 37L5 36z"/>
<path style="fill:#0f0a15; stroke:none;" d="M13 36L14 37L13 36z"/>
<path style="fill:#4a3166; stroke:none;" d="M14 36L15 37L14 36z"/>
<path style="fill:#8658b6; stroke:none;" d="M15 38L19 37C16.9535 36.2489 16.4043 36.3444 15 38z"/>
<path style="fill:#261934; stroke:none;" d="M19 36L20 37L19 36z"/>
<path style="fill:#6a448f; stroke:none;" d="M25 36L26 37L25 36z"/>
<path style="fill:#9d61ef; stroke:none;" d="M26 36C26.9884 40.0066 27.6203 43.8897 28 48C29.7769 43.7639 29.1278 39.3381 26 36z"/>
<path style="fill:#281a37; stroke:none;" d="M30 36L31 37L30 36z"/>
<path style="fill:#ffffff; stroke:none;" d="M31 36C33.4795 39.8247 37.8076 38.9995 42 39C38.8052 35.7376 35.3858 36.0034 31 36z"/>
<path style="fill:#322145; stroke:none;" d="M40 36L41 37L40 36z"/>
<path style="fill:#a669f3; stroke:none;" d="M41 36L44 40L31 40L31 46C32.9367 45.5433 33.208 45.4187 35 46C35.951 43.4934 34.348 43.2942 32 43L32 41C37.0814 41 42.0303 40.8168 47 42C45.5179 38.896 44.104 37.4821 41 36z"/>
<path style="fill:#ffffff; stroke:none;" d="M44 36L49 43C51.8316 40.9512 53.5202 39.166 55 36L44 36z"/>
<path style="fill:#0b070f; stroke:none;" d="M55 36L56 37L55 36z"/>
<path style="fill:#5a3c7c; stroke:none;" d="M57 36L58 37L57 36z"/>
<path style="fill:#ffffff; stroke:none;" d="M57 39C59.364 38.5175 59.5175 38.364 60 36C58.0775 36.9015 58.0012 37.0762 57 39z"/>
<path style="fill:#1d1229; stroke:none;" d="M60 36L60 39C60.6961 37.4463 60.6961 37.5537 60 36z"/>
<path style="fill:#5c3b7f; stroke:none;" d="M62 36L62 39C62.6961 37.4463 62.6961 37.5537 62 36z"/>
<path style="fill:#3f2958; stroke:none;" d="M2 37L3 38L2 37z"/>
<path style="fill:#1c1229; stroke:none;" d="M4.33333 37.6667C4.27777 37.7222 4.22223 38.7778 4.66667 38.3333C4.72222 38.2778 4.77778 37.2222 4.33333 37.6667z"/>
<path style="fill:#6b4693; stroke:none;" d="M5 37L6 38L5 37z"/>
<path style="fill:#1b1125; stroke:none;" d="M7 37L8 38L7 37z"/>
<path style="fill:#000001; stroke:none;" d="M11 37L12 38L11 37z"/>
<path style="fill:#543776; stroke:none;" d="M12 37L13 38L12 37z"/>
<path style="fill:#ad71ef; stroke:none;" d="M13.6667 37.3333C13.2222 37.7778 14.2778 37.7222 14.3333 37.6667C14.7778 37.2222 13.7222 37.2778 13.6667 37.3333z"/>
<path style="fill:#915dd1; stroke:none;" d="M18 37C19.8551 39.0589 21.5761 40.668 24 42C22.3856 39.0979 21.1918 37.9326 18 37z"/>
<path style="fill:#130c1b; stroke:none;" d="M21 37L22 38L21 37z"/>
<path style="fill:#000001; stroke:none;" d="M25 37L26 38L25 37z"/>
<path style="fill:#110b17; stroke:none;" d="M28 37L29 38L28 37z"/>
<path style="fill:#8456b6; stroke:none;" d="M30 37L31 38L30 37z"/>
<path style="fill:#110b17; stroke:none;" d="M41 37L42 38L41 37z"/>
<path style="fill:#452d60; stroke:none;" d="M44 37L45 38L44 37z"/>
<path style="fill:#51356f; stroke:none;" d="M55 37L56 38L55 37z"/>
<path style="fill:#22162f; stroke:none;" d="M57 37L58 38L57 37z"/>
<path style="fill:#a569eb; stroke:none;" d="M5.33333 38.6667C5.27778 38.7222 5.22222 39.7778 5.66667 39.3333C5.72222 39.2778 5.77778 38.2222 5.33333 38.6667z"/>
<path style="fill:#5d3c81; stroke:none;" d="M6 38L7 39L6 38z"/>
<path style="fill:#010002; stroke:none;" d="M10 38L11 39L10 38z"/>
<path style="fill:#744ba3; stroke:none;" d="M11 38L12 39L11 38z"/>
<path style="fill:#ab6ef0; stroke:none;" d="M12 38L13 39L12 38z"/>
<path style="fill:#6b4597; stroke:none;" d="M13 38L14 39L13 38z"/>
<path style="fill:#170f21; stroke:none;" d="M14 38L15 39L14 38z"/>
<path style="fill:#ffffff; stroke:none;" d="M20 49C17.288 45.715 16.1386 43.2833 16 39L18 39C18.2688 42.565 18.8321 44.2565 22 46C21.9043 44.7426 22.0106 43.2365 21.3966 42.064C16.6474 32.9943 5.80113 45.3044 15.9745 48.6821C17.2071 49.0913 18.7368 48.959 20 49z"/>
<path style="fill:#060308; stroke:none;" d="M18 38L19 39L18 38z"/>
<path style="fill:#452c62; stroke:none;" d="M19 38L20 39L19 38z"/>
<path style="fill:#1c1227; stroke:none;" d="M22 38L23 39L22 38M26 38L27 39L26 38z"/>
<path style="fill:#4d316d; stroke:none;" d="M28.6667 38.3333C28.2222 38.7778 29.2778 38.7222 29.3333 38.6667C29.7778 38.2222 28.7222 38.2778 28.6667 38.3333z"/>
<path style="fill:#a86cf0; stroke:none;" d="M30.3333 38.6667C30.2778 38.7222 30.2222 39.7778 30.6667 39.3333C30.7222 39.2778 30.7778 38.2222 30.3333 38.6667z"/>
<path style="fill:#180f22; stroke:none;" d="M31 38L32 39L31 38z"/>
<path style="fill:#160d1f; stroke:none;" d="M32 39C35.6975 40.5515 40.0168 40 44 40C40.5629 38.0127 35.9555 38.9974 32 39z"/>
<path style="fill:#3e2857; stroke:none;" d="M45 38L46 39L45 38z"/>
<path style="fill:#120c1a; stroke:none;" d="M54 38L55 39L54 38z"/>
<path style="fill:#a669f3; stroke:none;" d="M55 38C54.0143 39.4785 54 39.2032 54 41C55.947 41.4535 57.269 41.994 59 43L60 40C58.053 39.5465 56.731 39.006 55 38z"/>
<path style="fill:#7249a1; stroke:none;" d="M56 38L57 39L56 38z"/>
<path style="fill:#3a2455; stroke:none;" d="M1.33333 39.6667C1.27778 39.7222 1.22222 40.7778 1.66667 40.3333C1.72223 40.2778 1.77778 39.2222 1.33333 39.6667z"/>
<path style="fill:#a669f3; stroke:none;" d="M2 39L2 42C2.6961 40.4463 2.6961 40.5537 2 39z"/>
<path style="fill:#5a3a81; stroke:none;" d="M3.66667 39.3333C3.22222 39.7778 4.27778 39.7222 4.33333 39.6667C4.77777 39.2222 3.72222 39.2778 3.66667 39.3333z"/>
<path style="fill:#0d0813; stroke:none;" d="M6 39L7 40L6 39z"/>
<path style="fill:#5a3a81; stroke:none;" d="M10 39L11 40L10 39z"/>
<path style="fill:#a86cf0; stroke:none;" d="M11 39L12 40L11 39z"/>
<path style="fill:#422b5e; stroke:none;" d="M12 39L13 40L12 39z"/>
<path style="fill:#0e0915; stroke:none;" d="M16.6667 39.3333C16.2222 39.7778 17.2778 39.7222 17.3333 39.6667C17.7778 39.2222 16.7222 39.2778 16.6667 39.3333z"/>
<path style="fill:#160d1f; stroke:none;" d="M20 39L21 40L20 39z"/>
<path style="fill:#08050b; stroke:none;" d="M23 39L24 40L23 39z"/>
<path style="fill:#231633; stroke:none;" d="M29.3333 39.6667C29.2778 39.7222 29.2222 40.7778 29.6667 40.3333C29.7222 40.2778 29.7778 39.2222 29.3333 39.6667z"/>
<path style="fill:#5a3981; stroke:none;" d="M31 39L32 40L31 39z"/>
<path style="fill:#1d122a; stroke:none;" d="M46 39L47 40L46 39z"/>
<path style="fill:#030205; stroke:none;" d="M53 39L54 40L53 39z"/>
<path style="fill:#160d1f; stroke:none;" d="M56 39C57.506 39.683 58.3148 39.8259 60 40C58.494 39.317 57.6852 39.1741 56 39z"/>
<path style="fill:#905bd2; stroke:none;" d="M60 39L60 41C61.6352 40.4549 61.4549 40.6352 62 39L60 39z"/>
<path style="fill:#0b0710; stroke:none;" d="M62 39L63 40L62 39z"/>
<path style="fill:#0f0917; stroke:none;" d="M3.33333 40.6667C3.27778 40.7222 3.22223 41.7778 3.66667 41.3333C3.72222 41.2778 3.77778 40.2222 3.33333 40.6667z"/>
<path style="fill:#764bab; stroke:none;" d="M4.66667 40.3333C4.22223 40.7778 5.27778 40.7222 5.33333 40.6667C5.77778 40.2222 4.72222 40.2778 4.66667 40.3333z"/>
<path style="fill:#160e21; stroke:none;" d="M9 40L10 41L9 40z"/>
<path style="fill:#9e62eb; stroke:none;" d="M10.3333 40.6667C10.2778 40.7222 10.2222 41.7778 10.6667 41.3333C10.7222 41.2778 10.7778 40.2222 10.3333 40.6667z"/>
<path style="fill:#5d3c8a; stroke:none;" d="M11 40L12 41L11 40z"/>
<path style="fill:#a466f4; stroke:none;" d="M16 40L16 44C16.7102 42.2405 16.7102 41.7595 16 40z"/>
<path style="fill:#513379; stroke:none;" d="M17 40L17 44C17.7102 42.2405 17.7102 41.7595 17 40z"/>
<path style="fill:#211431; stroke:none;" d="M21 40L22 41L21 40z"/>
<path style="fill:#53357a; stroke:none;" d="M23 40L24 41L23 40z"/>
<path style="fill:#362250; stroke:none;" d="M27 40L28 41L27 40z"/>
<path style="fill:#4d3077; stroke:none;" d="M30 40C29.2776 42.4181 29.0519 44.4717 29 47C30.8272 44.5884 31.1497 42.8312 30 40z"/>
<path style="fill:#050308; stroke:none;" d="M47 40L48 41L47 40z"/>
<path style="fill:#010002; stroke:none;" d="M52 40L53 41L52 40z"/>
<path style="fill:#684299; stroke:none;" d="M53 40L54 41L53 40z"/>
<path style="fill:#221532; stroke:none;" d="M61 40L62 41L61 40z"/>
<path style="fill:#7246ad; stroke:none;" d="M1 41L1 46C2.51644 43.8222 2.51644 43.1778 1 41z"/>
<path style="fill:#945be2; stroke:none;" d="M4 41C4.02621 44.1217 4.27572 46.9605 5 50C6.0403 46.8747 5.68938 43.8139 4 41z"/>
<path style="fill:#2e1c46; stroke:none;" d="M5.33333 41.6667C5.27778 41.7222 5.22222 42.7778 5.66667 42.3333C5.72222 42.2778 5.77778 41.2222 5.33333 41.6667z"/>
<path style="fill:#54347d; stroke:none;" d="M9 41L10 42L9 41z"/>
<path style="fill:#0c0712; stroke:none;" d="M11 41L12 42L11 41z"/>
<path style="fill:#27183c; stroke:none;" d="M24 41L24 46C24.8299 43.9695 24.8299 43.0305 24 41z"/>
<path style="fill:#09050e; stroke:none;" d="M27 41L28 42L27 41z"/>
<path style="fill:#412961; stroke:none;" d="M32 41C35.7412 43.6063 41.4992 42.003 46 42C41.7835 40.2307 36.5411 41 32 41z"/>
<path style="fill:#563681; stroke:none;" d="M47 41L48 42L47 41z"/>
<path style="fill:#020103; stroke:none;" d="M51 41L52 42L51 41z"/>
<path style="fill:#68429d; stroke:none;" d="M52 41L53 42L52 41z"/>
<path style="fill:#a466f4; stroke:none;" d="M53 41L54 42L53 41z"/>
<path style="fill:#412961; stroke:none;" d="M54 41C55.2484 41.6848 55.5484 41.7488 57 42C55.7517 41.3152 55.4516 41.2512 54 41z"/>
<path style="fill:#5a3887; stroke:none;" d="M57.3333 41.6667C57.2778 41.7222 57.2222 42.7778 57.6667 42.3333C57.7222 42.2778 57.7778 41.2222 57.3333 41.6667z"/>
<path style="fill:#2e1c45; stroke:none;" d="M59 41L60 42L59 41z"/>
<path style="fill:#020104; stroke:none;" d="M60 41L61 42L60 41z"/>
<path style="fill:#2d1b45; stroke:none;" d="M3 42L3 45C3.6961 43.4463 3.6961 43.5537 3 42z"/>
<path style="fill:#633d96; stroke:none;" d="M9 42L10 45C10.6848 43.7516 10.7488 43.4516 11 42L9 42z"/>
<path style="fill:#201432; stroke:none;" d="M22 42L22 46C22.7102 44.2405 22.7102 43.7595 22 42z"/>
<path style="fill:#a163f5; stroke:none;" d="M23 42L23 46C23.7102 44.2405 23.7102 43.7595 23 42z"/>
<path style="fill:#0a0610; stroke:none;" d="M32 42L33 43L32 42z"/>
<path style="fill:#ffffff; stroke:none;" d="M36 42L37 47L32 47L31 51C40.4705 51 53.2218 53.0133 57 42C53.5002 42.9712 50.9994 44.9827 48 47C45.3813 41.4952 41.5485 42.0006 36 42z"/>
<path style="fill:#6f45a8; stroke:none;" d="M46 42L47 43L46 42z"/>
<path style="fill:#9f62f2; stroke:none;" d="M47.3333 42.6667C47.2778 42.7222 47.2222 43.7778 47.6667 43.3333C47.7222 43.2778 47.7778 42.2222 47.3333 42.6667z"/>
<path style="fill:#110a1a; stroke:none;" d="M48 42C48.5451 43.6352 48.3648 43.4549 50 44C49.4549 42.3648 49.6352 42.5451 48 42z"/>
<path style="fill:#040207; stroke:none;" d="M50 42L51 43L50 42z"/>
<path style="fill:#6d43a4; stroke:none;" d="M51 42L52 43L51 42z"/>
<path style="fill:#a264f5; stroke:none;" d="M52 42L53 43L52 42z"/>
<path style="fill:#583687; stroke:none;" d="M53 42L54 43L53 42z"/>
<path style="fill:#000000; stroke:none;" d="M59 42L60 43L59 42z"/>
<path style="fill:#1f1330; stroke:none;" d="M6.33333 43.6667C6.27778 43.7222 6.22222 44.7778 6.66667 44.3333C6.72222 44.2778 6.77778 43.2222 6.33333 43.6667z"/>
<path style="fill:#8250c6; stroke:none;" d="M9 43C9.40567 45.0924 9.21666 45.0198 11 46C10.3087 44.6116 10.0154 44.1394 9 43z"/>
<path style="fill:#030105; stroke:none;" d="M26.3333 43.6667C26.2778 43.7222 26.2222 44.7778 26.6667 44.3333C26.7222 44.2778 26.7778 43.2222 26.3333 43.6667z"/>
<path style="fill:#1e122e; stroke:none;" d="M36 43L37 44L36 43z"/>
<path style="fill:#160d22; stroke:none;" d="M46 43L47 44L46 43z"/>
<path style="fill:#573685; stroke:none;" d="M48 43L49 44L48 43z"/>
<path style="fill:#915adf; stroke:none;" d="M48 46C49.9486 45.0643 50.5502 44.6076 52 43C49.8683 43.7765 49.2292 44.1302 48 46z"/>
<path style="fill:#472b6d; stroke:none;" d="M52 43L53 44L52 43z"/>
<path style="fill:#814fc4; stroke:none;" d="M57.6667 43.3333C57.2222 43.7778 58.2778 43.7222 58.3333 43.6667C58.7778 43.2222 57.7222 43.2778 57.6667 43.3333z"/>
<path style="fill:#6f44a9; stroke:none;" d="M5 44L6 45L5 44z"/>
<path style="fill:#573685; stroke:none;" d="M16 44L17 45L16 44z"/>
<path style="fill:#a163f5; stroke:none;" d="M17 44C17.5451 45.6352 17.3648 45.4549 19 46C18.4549 44.3648 18.6352 44.5451 17 44z"/>
<path style="fill:#52337e; stroke:none;" d="M18 44L19 45L18 44z"/>
<path style="fill:#573686; stroke:none;" d="M27 44L28 45L27 44z"/>
<path style="fill:#5a3787; stroke:none;" d="M33 44L34 45L33 44z"/>
<path style="fill:#0e0815; stroke:none;" d="M34 44L35 45L34 44z"/>
<path style="fill:#392255; stroke:none;" d="M36.3333 44.6667C36.2778 44.7222 36.2222 45.7778 36.6667 45.3333C36.7222 45.2778 36.7778 44.2222 36.3333 44.6667z"/>
<path style="fill:#6f44aa; stroke:none;" d="M47 44L48 45L47 44z"/>
<path style="fill:#342050; stroke:none;" d="M51 44L52 45L51 44z"/>
<path style="fill:#110a1a; stroke:none;" d="M56 44L57 45L56 44z"/>
<path style="fill:#a063f4; stroke:none;" d="M57.3333 44.6667C57.2778 44.7222 57.2222 45.7778 57.6667 45.3333C57.7222 45.2778 57.7778 44.2222 57.3333 44.6667z"/>
<path style="fill:#50327a; stroke:none;" d="M58 44L59 45L58 44z"/>
<path style="fill:#a062f3; stroke:none;" d="M2 45L2 49C2.71021 47.2405 2.71021 46.7595 2 45z"/>
<path style="fill:#0d0815; stroke:none;" d="M3 45L3 48C3.6961 46.4463 3.6961 46.5537 3 45z"/>
<path style="fill:#50307a; stroke:none;" d="M5.33333 45.6667C5.27777 45.7222 5.22223 46.7778 5.66667 46.3333C5.72222 46.2778 5.77778 45.2222 5.33333 45.6667z"/>
<path style="fill:#000000; stroke:none;" d="M16 45L17 46L16 45z"/>
<path style="fill:#613d95; stroke:none;" d="M17 45L18 46L17 45z"/>
<path style="fill:#482c6e; stroke:none;" d="M19 45L20 46L19 45z"/>
<path style="fill:#8c56d5; stroke:none;" d="M32 45C33.2228 46.1952 33.42 46.3164 35 47C34.0198 45.2167 34.0924 45.4057 32 45z"/>
<path style="fill:#2c1b44; stroke:none;" d="M47 45L48 46L47 45z"/>
<path style="fill:#170e24; stroke:none;" d="M50 45L51 46L50 45z"/>
<path style="fill:#553483; stroke:none;" d="M56 45L57 46L56 45z"/>
<path style="fill:#140c20; stroke:none;" d="M58 45L59 46L58 45z"/>
<path style="fill:#2c1b44; stroke:none;" d="M1 46L1 49C1.6961 47.4463 1.6961 47.5537 1 46z"/>
<path style="fill:#442968; stroke:none;" d="M9 46L10 47L9 46z"/>
<path style="fill:#915adf; stroke:none;" d="M10 46C12.4267 50.8115 18.4672 53.0003 22 48C16.8694 49.8093 14.512 48.8252 10 46z"/>
<path style="fill:#1d122d; stroke:none;" d="M11 46L12 47L11 46z"/>
<path style="fill:#020103; stroke:none;" d="M17 46L18 47L17 46z"/>
<path style="fill:#6d44a8; stroke:none;" d="M18 46L19 47L18 46z"/>
<path style="fill:#a063f4; stroke:none;" d="M19 46L20 47L19 46z"/>
<path style="fill:#180e24; stroke:none;" d="M20 46L20 48C21.6352 47.4549 21.4549 47.6352 22 46L20 46z"/>
<path style="fill:#8350c7; stroke:none;" d="M22 46L22 49C23.0154 47.8607 23.3087 47.3884 24 46L22 46z"/>
<path style="fill:#120b1c; stroke:none;" d="M27 46L28 47L27 46z"/>
<path style="fill:#8753cd; stroke:none;" d="M30 46L30 50C31.0811 48.542 31.4361 47.752 32 46L30 46z"/>
<path style="fill:#241637; stroke:none;" d="M32 46L33 47L32 46z"/>
<path style="fill:#5c398d; stroke:none;" d="M35 46L36 47L35 46z"/>
<path style="fill:#000001; stroke:none;" d="M36 46L37 47L36 46z"/>
<path style="fill:#673f9d; stroke:none;" d="M43.6667 46.3333C43.2222 46.7778 44.2778 46.7222 44.3333 46.6667C44.7778 46.2222 43.7222 46.2778 43.6667 46.3333z"/>
<path style="fill:#0e0816; stroke:none;" d="M45 46L46 47L45 46z"/>
<path style="fill:#040207; stroke:none;" d="M48.6667 46.3333C48.2222 46.7778 49.2778 46.7222 49.3333 46.6667C49.7778 46.2222 48.7222 46.2778 48.6667 46.3333z"/>
<path style="fill:#1d122d; stroke:none;" d="M55 46L56 47L55 46z"/>
<path style="fill:#9059dc; stroke:none;" d="M56 46L53 50C55.1435 48.8693 56.0986 48.4322 56 46z"/>
<path style="fill:#633d98; stroke:none;" d="M57 46L58 47L57 46z"/>
<path style="fill:#07040b; stroke:none;" d="M9 47L10 48L9 47z"/>
<path style="fill:#020104; stroke:none;" d="M12 47L13 48L12 47z"/>
<path style="fill:#040207; stroke:none;" d="M18 47L19 48L18 47z"/>
<path style="fill:#53347f; stroke:none;" d="M19 47L20 48L19 47z"/>
<path style="fill:#422965; stroke:none;" d="M21 47L22 48L21 47z"/>
<path style="fill:#372255; stroke:none;" d="M23 47L24 48L23 47z"/>
<path style="fill:#442968; stroke:none;" d="M27 47L28 48L27 47z"/>
<path style="fill:#231536; stroke:none;" d="M29.3333 47.6667C29.2778 47.7222 29.2222 48.7778 29.6667 48.3333C29.7222 48.2778 29.7778 47.2222 29.3333 47.6667z"/>
<path style="fill:#000001; stroke:none;" d="M42.3333 47.6667C42.2778 47.7222 42.2222 48.7778 42.6667 48.3333C42.7222 48.2778 42.7778 47.2222 42.3333 47.6667z"/>
<path style="fill:#a163f5; stroke:none;" d="M43.6667 47.3333C43.2222 47.7778 44.2778 47.7222 44.3333 47.6667C44.7778 47.2222 43.7222 47.2778 43.6667 47.3333z"/>
<path style="fill:#4d3077; stroke:none;" d="M45 47L46 48L45 47z"/>
<path style="fill:#130b1e; stroke:none;" d="M54 47L55 48L54 47z"/>
<path style="fill:#0a060f; stroke:none;" d="M57 47L58 48L57 47z"/>
<path style="fill:#442b6a; stroke:none;" d="M3.66667 48.3333C3.22222 48.7778 4.27778 48.7222 4.33333 48.6667C4.77778 48.2222 3.72222 48.2778 3.66667 48.3333z"/>
<path style="fill:#1c112b; stroke:none;" d="M6 48L7 49L6 48z"/>
<path style="fill:#321e4d; stroke:none;" d="M10 48L11 49L10 48z"/>
<path style="fill:#08040c; stroke:none;" d="M13 48L14 49L13 48z"/>
<path style="fill:#3e255f; stroke:none;" d="M20 48L21 49L20 48z"/>
<path style="fill:#000000; stroke:none;" d="M23 48L24 49L23 48z"/>
<path style="fill:#8350c7; stroke:none;" d="M26 51C27.9225 50.0985 27.9988 49.9238 29 48C27.0775 48.9015 27.0012 49.0762 26 51z"/>
<path style="fill:#3e255f; stroke:none;" d="M31 48L32 49L31 48z"/>
<path style="fill:#8c56d4; stroke:none;" d="M43.6667 48.3333C43.2222 48.7778 44.2778 48.7222 44.3333 48.6667C44.7778 48.2222 43.7222 48.2778 43.6667 48.3333z"/>
<path style="fill:#1f122f; stroke:none;" d="M45 48L46 49L45 48z"/>
<path style="fill:#231536; stroke:none;" d="M53 48L54 49L53 48z"/>
<path style="fill:#1d122d; stroke:none;" d="M56 48L57 49L56 48z"/>
<path style="fill:#663f9c; stroke:none;" d="M2 49L3 50L2 49z"/>
<path style="fill:#a063f4; stroke:none;" d="M3.33333 49.6667C3.27777 49.7222 3.22222 50.7778 3.66667 50.3333C3.72222 50.2778 3.77778 49.2222 3.33333 49.6667z"/>
<path style="fill:#100b1a; stroke:none;" d="M4 49L5 50L4 49z"/>
<path style="fill:#6d44a8; stroke:none;" d="M6 49L7 50L6 49z"/>
<path style="fill:#3f2761; stroke:none;" d="M11 49L12 50L11 49z"/>
<path style="fill:#482c6e; stroke:none;" d="M14 49L15 50L14 49z"/>
<path style="fill:#07040b; stroke:none;" d="M15 49C16.2484 49.6848 16.5484 49.7488 18 50C16.7516 49.3152 16.4516 49.2512 15 49z"/>
<path style="fill:#342050; stroke:none;" d="M18 49L19 50L18 49z"/>
<path style="fill:#07040b; stroke:none;" d="M22 49L23 50L22 49z"/>
<path style="fill:#301d49; stroke:none;" d="M26 49L27 50L26 49z"/>
<path style="fill:#170e24; stroke:none;" d="M28.3333 49.6667C28.2778 49.7222 28.2222 50.7778 28.6667 50.3333C28.7222 50.2778 28.7778 49.2222 28.3333 49.6667z"/>
<path style="fill:#603b92; stroke:none;" d="M29 49L30 50L29 49z"/>
<path style="fill:#07040b; stroke:none;" d="M31 49L32 50L31 49z"/>
<path style="fill:#160d22; stroke:none;" d="M51 49L52 50L51 49z"/>
<path style="fill:#613b94; stroke:none;" d="M52 49L53 50L52 49z"/>
<path style="fill:#1a0f27; stroke:none;" d="M55 49L56 50L55 49z"/>
<path style="fill:#211433; stroke:none;" d="M2 50L3 51L2 50z"/>
<path style="fill:#472a6b; stroke:none;" d="M4.66667 50.3333C4.22222 50.7778 5.27778 50.7222 5.33333 50.6667C5.77778 50.2222 4.72222 50.2778 4.66667 50.3333z"/>
<path style="fill:#985de7; stroke:none;" d="M6 50C7.15355 52.2489 7.75108 52.8465 10 54C8.78528 51.999 8.00097 51.2147 6 50z"/>
<path style="fill:#352051; stroke:none;" d="M7 50L8 51L7 50z"/>
<path style="fill:#0a060f; stroke:none;" d="M8.66667 50.3333C8.22222 50.7778 9.27778 50.7222 9.33333 50.6667C9.77778 50.2222 8.72222 50.2778 8.66667 50.3333z"/>
<path style="fill:#211433; stroke:none;" d="M12 50L13 51L12 50z"/>
<path style="fill:#442969; stroke:none;" d="M20 50L21 51L20 50z"/>
<path style="fill:#010002; stroke:none;" d="M21 50L22 51L21 50z"/>
<path style="fill:#150d21; stroke:none;" d="M23 53L26 51C23.8603 49.8822 23.4732 50.7492 23 53z"/>
<path style="fill:#a163f5; stroke:none;" d="M29 50L28 53C29.2892 51.5574 29.4009 51.7663 29 50z"/>
<path style="fill:#5c398c; stroke:none;" d="M30 50L31 51L30 50z"/>
<path style="fill:#26173b; stroke:none;" d="M47 50C48.2484 50.6848 48.5484 50.7488 50 51C48.7517 50.3152 48.4516 50.2512 47 50z"/>
<path style="fill:#8652cc; stroke:none;" d="M50.3333 50.6667C50.2778 50.7222 50.2222 51.7778 50.6667 51.3333C50.7222 51.2778 50.7778 50.2222 50.3333 50.6667z"/>
<path style="fill:#9d61ef; stroke:none;" d="M51.6667 50.3333C51.2222 50.7778 52.2778 50.7222 52.3333 50.6667C52.7778 50.2222 51.7222 50.2778 51.6667 50.3333z"/>
<path style="fill:#53347f; stroke:none;" d="M53 50L54 51L53 50z"/>
<path style="fill:#050208; stroke:none;" d="M54 50L55 51L54 50z"/>
<path style="fill:#6b42a3; stroke:none;" d="M3 51L4 52L3 51z"/>
<path style="fill:#965ce5; stroke:none;" d="M4 51C4.68357 52.58 4.80482 52.7772 6 54C5.31642 52.42 5.19518 52.2228 4 51z"/>
<path style="fill:#170e25; stroke:none;" d="M5 51L6 52L5 51z"/>
<path style="fill:#6b42a3; stroke:none;" d="M9 51L10 52L9 51z"/>
<path style="fill:#422965; stroke:none;" d="M14 51C15.769 51.7789 17.0359 51.9124 19 52C17.231 51.2211 15.9641 51.0876 14 51z"/>
<path style="fill:#010002; stroke:none;" d="M19 51L20 52L19 51z"/>
<path style="fill:#9059dc; stroke:none;" d="M24 51C22.3942 52.9136 21.2167 53.8369 19 55C22.672 55.9625 24.79 53.7893 27 51L24 51z"/>
<path style="fill:#301d4a; stroke:none;" d="M27 51C25.8137 52.1863 25.4721 52.5838 25 54C26.9943 53.1527 27.699 52.9929 27 51z"/>
<path style="fill:#6f45ab; stroke:none;" d="M28 51L29 52L28 51z"/>
<path style="fill:#8c56d4; stroke:none;" d="M30 51C34.7238 52.9822 40.9098 52 46 52C41.2762 50.0178 35.0902 51 30 51z"/>
<path style="fill:#a163f5; stroke:none;" d="M46 51C47.506 51.683 48.3148 51.8259 50 52C48.494 51.317 47.6852 51.1741 46 51z"/>
<path style="fill:#492c6f; stroke:none;" d="M51 51L52 52L51 51z"/>
<path style="fill:#0d0814; stroke:none;" d="M52 51L53 52L52 51z"/>
<path style="fill:#130b1d; stroke:none;" d="M3 52L4 53L3 52z"/>
<path style="fill:#100a19; stroke:none;" d="M6 52L7 53L6 52z"/>
<path style="fill:#422965; stroke:none;" d="M9 52L10 53L9 52z"/>
<path style="fill:#613a93; stroke:none;" d="M29 52C33.974 54.0872 40.638 53 46 53C41.026 50.9128 34.3619 52 29 52z"/>
<path style="fill:#492d6d; stroke:none;" d="M46 52C47.2484 52.6848 47.5484 52.7488 49 53C47.7517 52.3152 47.4516 52.2512 46 52z"/>
<path style="fill:#0b0611; stroke:none;" d="M49 52L50 53L49 52z"/>
<path style="fill:#301d4a; stroke:none;" d="M4 53L5 54L4 53z"/>
<path style="fill:#6d42a5; stroke:none;" d="M6 53L7 54L6 53z"/>
<path style="fill:#170e24; stroke:none;" d="M7 53L8 54L7 53z"/>
<path style="fill:#50327a; stroke:none;" d="M10 53L11 54L10 53z"/>
<path style="fill:#050309; stroke:none;" d="M11 53L12 54L11 53z"/>
<path style="fill:#000000; stroke:none;" d="M16 53L17 54L16 53z"/>
<path style="fill:#26173b; stroke:none;" d="M22 53L23 54L22 53z"/>
<path style="fill:#7d4dbe; stroke:none;" d="M26 56C27.4566 54.8966 27.8966 54.4566 29 53C26.8764 53.8993 26.8993 53.8764 26 56z"/>
<path style="fill:#000000; stroke:none;" d="M29 53L30 54L29 53z"/>
<path style="fill:#422965; stroke:none;" d="M5 54L6 55L5 54z"/>
<path style="fill:#a063f4; stroke:none;" d="M6 54L7 55L6 54z"/>
<path style="fill:#6f45ab; stroke:none;" d="M7 54L8 55L7 54z"/>
<path style="fill:#100917; stroke:none;" d="M8 54L9 55L8 54z"/>
<path style="fill:#6a41a0; stroke:none;" d="M9 54L10 55L9 54z"/>
<path style="fill:#a163f5; stroke:none;" d="M10 54C11.7885 55.4215 12.7058 55.6974 15 56C13.3068 54.9377 11.9596 54.4804 10 54z"/>
<path style="fill:#4b2e73; stroke:none;" d="M12 54L13 55L12 54z"/>
<path style="fill:#160d22; stroke:none;" d="M13 54L14 55L13 54z"/>
<path style="fill:#a163f5; stroke:none;" d="M16.3333 54.6667C16.2778 54.7222 16.2222 55.7778 16.6667 55.3333C16.7222 55.2778 16.7778 54.2222 16.3333 54.6667z"/>
<path style="fill:#3a2359; stroke:none;" d="M17 54L18 55L17 54z"/>
<path style="fill:#050309; stroke:none;" d="M19 54L20 55L19 54z"/>
<path style="fill:#342050; stroke:none;" d="M20 54L21 55L20 54z"/>
<path style="fill:#472a6b; stroke:none;" d="M24 54L24 56C25.6352 55.4549 25.4549 55.6352 26 54L24 54z"/>
<path style="fill:#050208; stroke:none;" d="M28 54L29 55L28 54z"/>
<path style="fill:#402660; stroke:none;" d="M6 55L7 56L6 55z"/>
<path style="fill:#8e57d8; stroke:none;" d="M7 55C9.16232 57.1712 11.0592 58.129 14 59C11.8377 56.8288 9.94082 55.871 7 55z"/>
<path style="fill:#231536; stroke:none;" d="M9.66667 55.3333C9.22222 55.7778 10.2778 55.7222 10.3333 55.6667C10.7778 55.2222 9.72222 55.2778 9.66667 55.3333z"/>
<path style="fill:#7c4bbd; stroke:none;" d="M15 55C16.5556 56.8129 17.4444 56.8129 19 55L15 55z"/>
<path style="fill:#553382; stroke:none;" d="M22.3333 55.6667C22.2778 55.7222 22.2222 56.7778 22.6667 56.3333C22.7222 56.2778 22.7778 55.2222 22.3333 55.6667z"/>
<path style="fill:#130b1d; stroke:none;" d="M23 55L24 56L23 55z"/>
<path style="fill:#a163f5; stroke:none;" d="M25 55L26 56L25 55z"/>
<path style="fill:#07040b; stroke:none;" d="M27 55L28 56L27 55z"/>
<path style="fill:#201432; stroke:none;" d="M7 56L8 57L7 56z"/>
<path style="fill:#110a1a; stroke:none;" d="M11.6667 56.3333C11.2222 56.7778 12.2778 56.7222 12.3333 56.6667C12.7778 56.2222 11.7222 56.2778 11.6667 56.3333z"/>
<path style="fill:#663f9a; stroke:none;" d="M13 56L13 58C14.6352 57.4549 14.4549 57.6352 15 56L13 56z"/>
<path style="fill:#553480; stroke:none;" d="M19.3333 56.6667C19.2778 56.7222 19.2222 57.7778 19.6667 57.3333C19.7222 57.2778 19.7778 56.2222 19.3333 56.6667z"/>
<path style="fill:#140c1f; stroke:none;" d="M20.6667 56.3333C20.2222 56.7778 21.2778 56.7222 21.3333 56.6667C21.7778 56.2222 20.7222 56.2778 20.6667 56.3333z"/>
<path style="fill:#9b60ec; stroke:none;" d="M23.6667 56.3333C23.2222 56.7778 24.2778 56.7222 24.3333 56.6667C24.7778 56.2222 23.7222 56.2778 23.6667 56.3333z"/>
<path style="fill:#4d2e75; stroke:none;" d="M25 56L26 57L25 56z"/>
<path style="fill:#000001; stroke:none;" d="M26 56L27 57L26 56z"/>
<path style="fill:#030105; stroke:none;" d="M8 57L9 58L8 57z"/>
<path style="fill:#462b6c; stroke:none;" d="M9 57L10 58L9 57z"/>
<path style="fill:#2e1c47; stroke:none;" d="M14 57C15.769 57.7789 17.0359 57.9124 19 58C17.231 57.2211 15.9641 57.0876 14 57z"/>
<path style="fill:#7447b0; stroke:none;" d="M20.3333 57.6667C20.2778 57.7222 20.2222 58.7778 20.6667 58.3333C20.7222 58.2778 20.7778 57.2222 20.3333 57.6667z"/>
<path style="fill:#9e61f1; stroke:none;" d="M21.6667 57.3333C21.2222 57.7778 22.2778 57.7222 22.3333 57.6667C22.7778 57.2222 21.7222 57.2778 21.6667 57.3333z"/>
<path style="fill:#613b94; stroke:none;" d="M23 57L24 58L23 57z"/>
<path style="fill:#100919; stroke:none;" d="M24 57L25 58L24 57z"/>
<path style="fill:#030105; stroke:none;" d="M10 58L11 59L10 58z"/>
<path style="fill:#321e4d; stroke:none;" d="M11 58L12 59L11 58z"/>
<path style="fill:#a163f5; stroke:none;" d="M14 58C16.0521 58.8742 17.7472 58.9528 20 59C17.9479 58.1258 16.2528 58.0472 14 58z"/>
<path style="fill:#412964; stroke:none;" d="M21 58L22 59L21 58z"/>
<path style="fill:#110a1a; stroke:none;" d="M22 58L23 59L22 58z"/>
<path style="fill:#1a1028; stroke:none;" d="M14 59C15.769 59.7789 17.0359 59.9124 19 60C17.231 59.2211 15.9641 59.0876 14 59z"/>
</svg>
